<svg width="64" height="64" viewBox="0 0 64 64" fill="none" xmlns="http://www.w3.org/2000/svg">
<g clip-path="url(#clip0_209_97)">
<path d="M51.5244 0H12.1044V2.46154H51.5244V0Z" fill="#451B0B"/>
<path d="M51.5244 61.5385H12.1044V64H51.5244V61.5385Z" fill="#451B0B"/>
<path d="M56.4677 2H51.4437V4.46168H56.4677V2Z" fill="#451B0B"/>
<path d="M7.53239 2H12.5564V4.46168H7.53239V2Z" fill="#451B0B"/>
<path d="M58.9831 4.4605H56.4711V6.92218H58.9831V4.4605Z" fill="#451B0B"/>
<path d="M5.0274 4.4605H7.53941V6.92218H5.0274V4.4605Z" fill="#451B0B"/>
<path d="M61.4889 6.91675H58.9769V9.37843H61.4889V6.91675Z" fill="#451B0B"/>
<path d="M2.52157 6.91675H5.03358V9.37843H2.52157V6.91675Z" fill="#451B0B"/>
<path d="M64 9.38153H61.488V53.6918H64V9.38153Z" fill="#451B0B"/>
<path d="M-1.43051e-06 9.38153H2.51201V53.6918H-1.43051e-06V9.38153Z" fill="#451B0B"/>
<path d="M61.4889 53.692H58.9769V56.1537H61.4889V53.692Z" fill="#451B0B"/>
<path d="M2.52157 53.692H5.03358V56.1537H2.52157V53.692Z" fill="#451B0B"/>
<path d="M58.9831 56.1568H56.4711V58.6185H58.9831V56.1568Z" fill="#451B0B"/>
<path d="M5.0274 56.1568H7.53941V58.6185H5.0274V56.1568Z" fill="#451B0B"/>
<path d="M56.4677 58.613H51.4437V61.0747H56.4677V58.613Z" fill="#451B0B"/>
<path d="M7.53239 58.613H12.5564V61.0747H7.53239V58.613Z" fill="#451B0B"/>
<path d="M51.5244 2.46154H12.1044V61.5384H51.5244V2.46154Z" fill="#BC8C61"/>
<path d="M61.5 9.38153H2.51201V53.6918H61.5V9.38153Z" fill="#BC8C61"/>
<path d="M59 6.91675H5.03358V56.1505H59V6.91675Z" fill="#BC8C61"/>
<path d="M56.5 4.4605H7.53941V58.6175H56.5V4.4605Z" fill="#BC8C61"/>
<path d="M45.9325 5.31393H17.9154V7.31393H45.9325V5.31393Z" fill="#B47C57"/>
<path d="M45.9325 56.3139H17.9154V58.3139H45.9325V56.3139Z" fill="#B47C57"/>
<path d="M13.1258 7.48944H17.9154V9.51671H13.1258V7.48944Z" fill="#B47C57"/>
<path d="M10.7262 9.51073H13.121V11.538H10.7262V9.51073Z" fill="#B47C57"/>
<path d="M8.3394 11.5405H10.7342V13.5678H8.3394V11.5405Z" fill="#B47C57"/>
<path d="M5.94228 13.5704H8.33707V50.0612H5.94228V13.5704Z" fill="#B47C57"/>
<path d="M8.3394 50.0558H10.7342V52.0831H8.3394V50.0558Z" fill="#B47C57"/>
<path d="M10.7262 52.0856H13.121V54.1129H10.7262V52.0856Z" fill="#B47C57"/>
<path d="M13.1258 54.1154H17.9154V56.1427H13.1258V54.1154Z" fill="#B47C57"/>
<path d="M50.7896 7.48944H46V9.51671H50.7896V7.48944Z" fill="#B47C57"/>
<path d="M53.1892 9.51073H50.7944V11.538H53.1892V9.51073Z" fill="#B47C57"/>
<path d="M55.576 11.5405H53.1812V13.5678H55.576V11.5405Z" fill="#B47C57"/>
<path d="M57.9731 13.5704H55.5783V50.0612H57.9731V13.5704Z" fill="#B47C57"/>
<path d="M55.576 50.0558H53.1812V52.0831H55.576V50.0558Z" fill="#B47C57"/>
<path d="M53.1892 52.0856H50.7944V54.1129H53.1892V52.0856Z" fill="#B47C57"/>
<path d="M50.7896 54.1154H46V56.1427H50.7896V54.1154Z" fill="#B47C57"/>
<path d="M45.9325 7.31393H17.9154V56.3139H45.9325V7.31393Z" fill="#FCBD80"/>
<path d="M55.5 13.5704H8.33707V50.0612H55.5V13.5704Z" fill="#FCBD80"/>
<path d="M53.1452 11.5405H10.7342V52.0859H53.1452V11.5405Z" fill="#FCBD80"/>
<path d="M51 9.51073H13.121V54.1106H51V9.51073Z" fill="#FCBD80"/>
</g>
<defs>
<clipPath id="clip0_209_97">
<rect width="64" height="64" fill="white"/>
</clipPath>
</defs>
</svg>
